<svg width="104" height="104" viewBox="0 0 104 104" fill="none" xmlns="http://www.w3.org/2000/svg">
<path d="M59.8113 48.1132C59.8113 48.1132 55.294 36.2972 59.8113 31.8113C64.2973 27.3565 76 31.8113 76 31.8113L76 16.1887C67.0566 16.1887 59.8113 8.94339 59.8113 -7.07629e-07L44.1887 -1.39052e-06C44.1887 -1.39052e-06 48.6591 11.7183 44.1887 16.1887C39.7183 20.659 28 16.1887 28 16.1887L28 31.8113C36.9434 31.8113 44.1887 39.1698 44.1887 48.1132L59.8113 48.1132Z" fill="white"/>
<path d="M13.7344 80.6327H6.42969L6.39062 76.6093H12.5234C13.6042 76.6093 14.4896 76.4725 15.1797 76.1991C15.8698 75.9126 16.3841 75.5025 16.7227 74.9686C17.0742 74.4218 17.25 73.7577 17.25 72.9764C17.25 72.091 17.0807 71.3749 16.7422 70.828C16.4167 70.2811 15.9023 69.884 15.1992 69.6366C14.5091 69.3892 13.6172 69.2655 12.5234 69.2655H8.46094V93.1132H2.60156V64.6757H12.5234C14.1771 64.6757 15.6549 64.8319 16.957 65.1444C18.2721 65.4569 19.3854 65.9322 20.2969 66.5702C21.2083 67.2082 21.9049 68.0155 22.3867 68.9921C22.8685 69.9556 23.1094 71.1014 23.1094 72.4296C23.1094 73.6014 22.8424 74.6822 22.3086 75.6718C21.7878 76.6613 20.9609 77.4686 19.8281 78.0936C18.7083 78.7186 17.2435 79.0637 15.4336 79.1288L13.7344 80.6327ZM13.4805 93.1132H4.82812L7.11328 88.5428H13.4805C14.5091 88.5428 15.349 88.3801 16 88.0546C16.651 87.716 17.1328 87.2603 17.4453 86.6874C17.7578 86.1145 17.9141 85.4569 17.9141 84.7147C17.9141 83.8814 17.7708 83.1587 17.4844 82.5468C17.2109 81.9348 16.7682 81.466 16.1562 81.1405C15.5443 80.802 14.737 80.6327 13.7344 80.6327H8.08984L8.12891 76.6093H15.1602L16.5078 78.1913C18.2396 78.1652 19.6328 78.4712 20.6875 79.1093C21.7552 79.7343 22.5299 80.5481 23.0117 81.5507C23.5065 82.5533 23.7539 83.6275 23.7539 84.7733C23.7539 86.5962 23.3568 88.1327 22.5625 89.3827C21.7682 90.6197 20.6029 91.5507 19.0664 92.1757C17.543 92.8007 15.681 93.1132 13.4805 93.1132ZM37.6031 88.3475V78.9335C37.6031 78.2564 37.4924 77.677 37.2711 77.1952C37.0497 76.7004 36.7047 76.3163 36.2359 76.0428C35.7802 75.7694 35.1878 75.6327 34.4586 75.6327C33.8336 75.6327 33.2932 75.7434 32.8375 75.9647C32.3818 76.1731 32.0302 76.479 31.7828 76.8827C31.5354 77.2733 31.4117 77.7356 31.4117 78.2694H25.7867C25.7867 77.371 25.9951 76.5181 26.4117 75.7108C26.8284 74.9035 27.4339 74.1939 28.2281 73.5819C29.0224 72.9569 29.9664 72.4686 31.0602 72.1171C32.1669 71.7655 33.4039 71.5897 34.7711 71.5897C36.4117 71.5897 37.8701 71.8632 39.1461 72.41C40.4221 72.9569 41.4247 73.7772 42.1539 74.871C42.8961 75.9647 43.2672 77.3319 43.2672 78.9725V88.0155C43.2672 89.1744 43.3388 90.1249 43.482 90.8671C43.6253 91.5962 43.8336 92.2343 44.107 92.7811V93.1132H38.4234C38.15 92.5402 37.9417 91.8241 37.7984 90.9647C37.6682 90.0923 37.6031 89.2199 37.6031 88.3475ZM38.3453 80.2421L38.3844 83.4257H35.2398C34.4977 83.4257 33.8531 83.5103 33.3062 83.6796C32.7594 83.8488 32.3102 84.0897 31.9586 84.4022C31.607 84.7017 31.3466 85.0533 31.1773 85.4569C31.0211 85.8606 30.943 86.3033 30.943 86.785C30.943 87.2668 31.0536 87.703 31.275 88.0936C31.4964 88.4712 31.8154 88.7707 32.232 88.9921C32.6487 89.2004 33.137 89.3046 33.6969 89.3046C34.5432 89.3046 35.2789 89.1353 35.9039 88.7968C36.5289 88.4582 37.0107 88.0415 37.3492 87.5468C37.7008 87.052 37.8831 86.5832 37.8961 86.1405L39.3805 88.5233C39.1721 89.0572 38.8857 89.6106 38.5211 90.1835C38.1695 90.7564 37.7203 91.2968 37.1734 91.8046C36.6266 92.2994 35.969 92.7095 35.2008 93.035C34.4326 93.3475 33.5211 93.5038 32.4664 93.5038C31.1253 93.5038 29.9078 93.2369 28.8141 92.703C27.7333 92.1561 26.874 91.4074 26.2359 90.4569C25.6109 89.4934 25.2984 88.3996 25.2984 87.1757C25.2984 86.0689 25.5068 85.0858 25.9234 84.2264C26.3401 83.3671 26.9521 82.6444 27.7594 82.0585C28.5797 81.4595 29.6018 81.0103 30.8258 80.7108C32.0497 80.3983 33.469 80.2421 35.0836 80.2421H38.3453ZM62.8195 88.7186V93.1132H46.7648V88.7186H62.8195ZM62.507 75.2225L49.0305 93.1132H45.2609V89.7733L58.6789 71.9803H62.507V75.2225ZM60.5148 71.9803V76.3944H45.5734V71.9803H60.5148ZM76.1609 88.3475V78.9335C76.1609 78.2564 76.0503 77.677 75.8289 77.1952C75.6076 76.7004 75.2625 76.3163 74.7938 76.0428C74.338 75.7694 73.7456 75.6327 73.0164 75.6327C72.3914 75.6327 71.851 75.7434 71.3953 75.9647C70.9396 76.1731 70.588 76.479 70.3406 76.8827C70.0932 77.2733 69.9695 77.7356 69.9695 78.2694H64.3445C64.3445 77.371 64.5529 76.5181 64.9695 75.7108C65.3862 74.9035 65.9917 74.1939 66.7859 73.5819C67.5802 72.9569 68.5242 72.4686 69.618 72.1171C70.7247 71.7655 71.9617 71.5897 73.3289 71.5897C74.9695 71.5897 76.4279 71.8632 77.7039 72.41C78.9799 72.9569 79.9826 73.7772 80.7117 74.871C81.4539 75.9647 81.825 77.3319 81.825 78.9725V88.0155C81.825 89.1744 81.8966 90.1249 82.0398 90.8671C82.1831 91.5962 82.3914 92.2343 82.6648 92.7811V93.1132H76.9813C76.7078 92.5402 76.4995 91.8241 76.3563 90.9647C76.226 90.0923 76.1609 89.2199 76.1609 88.3475ZM76.9031 80.2421L76.9422 83.4257H73.7977C73.0555 83.4257 72.4109 83.5103 71.8641 83.6796C71.3172 83.8488 70.868 84.0897 70.5164 84.4022C70.1648 84.7017 69.9044 85.0533 69.7352 85.4569C69.5789 85.8606 69.5008 86.3033 69.5008 86.785C69.5008 87.2668 69.6115 87.703 69.8328 88.0936C70.0542 88.4712 70.3732 88.7707 70.7898 88.9921C71.2065 89.2004 71.6948 89.3046 72.2547 89.3046C73.101 89.3046 73.8367 89.1353 74.4617 88.7968C75.0867 88.4582 75.5685 88.0415 75.907 87.5468C76.2586 87.052 76.4409 86.5832 76.4539 86.1405L77.9383 88.5233C77.7299 89.0572 77.4435 89.6106 77.0789 90.1835C76.7273 90.7564 76.2781 91.2968 75.7313 91.8046C75.1844 92.2994 74.5268 92.7095 73.7586 93.035C72.9904 93.3475 72.0789 93.5038 71.0242 93.5038C69.6831 93.5038 68.4656 93.2369 67.3719 92.703C66.2911 92.1561 65.4318 91.4074 64.7938 90.4569C64.1688 89.4934 63.8563 88.3996 63.8563 87.1757C63.8563 86.0689 64.0646 85.0858 64.4813 84.2264C64.8979 83.3671 65.5099 82.6444 66.3172 82.0585C67.1375 81.4595 68.1596 81.0103 69.3836 80.7108C70.6076 80.3983 72.0268 80.2421 73.6414 80.2421H76.9031ZM90.1859 76.5897V93.1132H84.5609V71.9803H89.8539L90.1859 76.5897ZM96.5531 71.8436L96.4555 77.0585C96.182 77.0194 95.85 76.9869 95.4594 76.9608C95.0818 76.9218 94.7367 76.9022 94.4242 76.9022C93.6299 76.9022 92.9398 77.0064 92.3539 77.2147C91.781 77.41 91.2992 77.703 90.9086 78.0936C90.531 78.4843 90.2445 78.9595 90.0492 79.5194C89.8669 80.0793 89.7628 80.7173 89.7367 81.4335L88.6039 81.0819C88.6039 79.7147 88.7406 78.4582 89.0141 77.3124C89.2875 76.1535 89.6846 75.1444 90.2055 74.285C90.7393 73.4257 91.3904 72.7616 92.1586 72.2928C92.9268 71.8241 93.8057 71.5897 94.7953 71.5897C95.1078 71.5897 95.4268 71.6158 95.7523 71.6678C96.0779 71.7069 96.3448 71.7655 96.5531 71.8436ZM94.7969 90.3983C94.7969 89.565 95.0833 88.8684 95.6562 88.3085C96.2422 87.7486 97.0169 87.4686 97.9805 87.4686C98.944 87.4686 99.7122 87.7486 100.285 88.3085C100.871 88.8684 101.164 89.565 101.164 90.3983C101.164 91.2316 100.871 91.9283 100.285 92.4882C99.7122 93.0481 98.944 93.328 97.9805 93.328C97.0169 93.328 96.2422 93.0481 95.6562 92.4882C95.0833 91.9283 94.7969 91.2316 94.7969 90.3983Z" fill="white"/>
</svg>
