<svg width="18" height="23" viewBox="0 0 18 23" fill="none" xmlns="http://www.w3.org/2000/svg">
<path fill-rule="evenodd" clip-rule="evenodd" d="M4.81 0.875H13.191C16.28 0.875 18 2.76625 18 6.00688V16.9825C18 20.2762 16.28 22.125 13.191 22.125H4.81C1.77 22.125 0 20.2762 0 16.9825V6.00688C0 2.76625 1.77 0.875 4.81 0.875ZM5.08 5.82625V5.81563H8.069C8.5 5.81563 8.85 6.1875 8.85 6.64331C8.85 7.11188 8.5 7.48375 8.069 7.48375H5.08C4.649 7.48375 4.3 7.11188 4.3 6.655C4.3 6.19813 4.649 5.82625 5.08 5.82625ZM5.08 12.2863H12.92C13.35 12.2863 13.7 11.9144 13.7 11.4575C13.7 11.0006 13.35 10.6277 12.92 10.6277H5.08C4.649 10.6277 4.3 11.0006 4.3 11.4575C4.3 11.9144 4.649 12.2863 5.08 12.2863ZM5.08 17.1419H12.92C13.319 17.0994 13.62 16.7371 13.62 16.3131C13.62 15.8775 13.319 15.5162 12.92 15.4737H5.08C4.78 15.4419 4.49 15.5906 4.33 15.8669C4.17 16.1325 4.17 16.4831 4.33 16.7594C4.49 17.025 4.78 17.1844 5.08 17.1419Z" fill="#54408C"/>
</svg>
