<svg width="20" height="18" viewBox="0 0 20 18" fill="none" xmlns="http://www.w3.org/2000/svg">
<path opacity="0.4" d="M19.9999 12.94C19.9999 15.73 17.7599 17.99 14.9699 18H14.9599H5.04988C2.26988 18 -0.00012207 15.75 -0.00012207 12.96V12.95C-0.00012207 12.95 0.00587793 8.524 0.0138779 6.298C0.0148779 5.88 0.494878 5.646 0.821878 5.906C3.19788 7.791 7.44688 11.228 7.49988 11.273C8.20988 11.842 9.10988 12.163 10.0299 12.163C10.9499 12.163 11.8499 11.842 12.5599 11.262C12.6129 11.227 16.7669 7.893 19.1789 5.977C19.5069 5.716 19.9889 5.95 19.9899 6.367C19.9999 8.576 19.9999 12.94 19.9999 12.94Z" fill="#121212"/>
<path d="M19.476 2.67351C18.61 1.04151 16.906 -0.000488281 15.03 -0.000488281H5.05001C3.17401 -0.000488281 1.47001 1.04151 0.604006 2.67351C0.410006 3.03851 0.502006 3.49351 0.825006 3.75151L8.25001 9.69051C8.77001 10.1105 9.40001 10.3195 10.03 10.3195C10.034 10.3195 10.037 10.3195 10.04 10.3195C10.043 10.3195 10.047 10.3195 10.05 10.3195C10.68 10.3195 11.31 10.1105 11.83 9.69051L19.255 3.75151C19.578 3.49351 19.67 3.03851 19.476 2.67351Z" fill="#121212"/>
</svg>
