<svg width="20" height="23" viewBox="0 0 20 23" fill="none" xmlns="http://www.w3.org/2000/svg">
<path fill-rule="evenodd" clip-rule="evenodd" d="M12.1213 10.6852H14.8891C15.3088 10.6852 15.6386 10.3165 15.6386 9.87197C15.6386 9.41657 15.3088 9.05875 14.8891 9.05875H12.1213C11.7016 9.05875 11.3719 9.41657 11.3719 9.87197C11.3719 10.3165 11.7016 10.6852 12.1213 10.6852ZM18.1766 5.04796C18.7861 5.04796 19.1858 5.27566 19.5855 5.77444C19.9852 6.27321 20.0551 6.98884 19.9652 7.63833L19.0159 14.7513C18.8361 16.1186 17.7569 17.1259 16.4879 17.1259H5.58639C4.25742 17.1259 3.15828 16.021 3.04837 14.5897L2.12908 2.76987L0.620259 2.48795C0.22057 2.41205 -0.0592117 1.98918 0.0107338 1.55546C0.0806793 1.11199 0.470376 0.818143 0.880056 0.884284L3.2632 1.27354C3.60293 1.33969 3.85274 1.6422 3.88272 2.01086L4.07257 4.43967C4.10254 4.78773 4.36234 5.04796 4.68209 5.04796H18.1766ZM5.42631 18.8396C4.58697 18.8396 3.9075 19.5769 3.9075 20.4877C3.9075 21.3877 4.58697 22.125 5.42631 22.125C6.25567 22.125 6.93514 21.3877 6.93514 20.4877C6.93514 19.5769 6.25567 18.8396 5.42631 18.8396ZM16.6676 18.8396C15.8282 18.8396 15.1487 19.5769 15.1487 20.4877C15.1487 21.3877 15.8282 22.125 16.6676 22.125C17.4969 22.125 18.1764 21.3877 18.1764 20.4877C18.1764 19.5769 17.4969 18.8396 16.6676 18.8396Z" fill="#54408C"/>
</svg>
